<?xml version="1.0" encoding="utf-8"?>
<!-- Generator: Adobe Illustrator 22.0.1, SVG Export Plug-In . SVG Version: 6.00 Build 0)  -->
<svg version="1.1" xmlns="http://www.w3.org/2000/svg" xmlns:xlink="http://www.w3.org/1999/xlink" x="0px" y="0px"
	 viewBox="0 0 139 40" style="enable-background:new 0 0 139 40;" xml:space="preserve">
<style type="text/css">
	.st0{fill:#FFFFFF;}
	.st1{font-family:'Futura-Medium';}
	.st2{font-size:12px;}
</style>
<g id="Layer_2">
</g>
<g id="Layer_1">
	<g>
		<path class="st0" d="M13.4,5.9c-0.7-2.2-1.7-4.7-5.2-4.7c-3,0-4.4,1.9-4.4,3.8c0,2.6,1.9,3.8,5,5.2s6.9,3.1,6.9,7.1
			c0,3.7-3.5,6.7-8.8,6.7C5.3,24,4,23.7,3,23.5c-1-0.3-1.6-0.6-2-0.7c-0.2-0.8-0.7-3.9-1-5.6L1.2,17c0.6,2.2,2.4,5.7,6.5,5.7
			c3,0,4.8-1.7,4.8-4.2c0-2.6-2.2-3.8-5.2-5.3c-2.5-1.2-6.5-3-6.5-6.9c0-3.4,3-6.3,8.1-6.3c1.8,0,3.5,0.4,5,0.8
			c0.2,1.3,0.4,2.6,0.7,4.9L13.4,5.9z"/>
		<path class="st0" d="M35.1,8.7c-0.3-1.4-0.7-2.2-1-2.7c-0.6-0.7-1.2-1-3.7-1H28v14.7c0,2.3,0.3,2.7,3.4,2.8v0.8h-9.6v-0.8
			c3.1-0.2,3.3-0.5,3.3-2.8V5H23c-2.8,0-3.5,0.2-3.9,0.9c-0.4,0.5-0.7,1.4-1.1,2.7h-1c0.2-1.8,0.3-3.8,0.4-5.4h0.7
			c0.6,0.8,1,0.8,2,0.8h13.3c0.9,0,1.2-0.2,1.7-0.7h0.7c0,1.3,0.2,3.6,0.4,5.3L35.1,8.7z"/>
		<path class="st0" d="M35.4,23.8c-1,0-1.8-0.7-1.8-1.7s0.8-1.7,1.9-1.7c1.1,0,1.9,0.7,1.9,1.7C37.3,23.1,36.5,23.8,35.4,23.8
			L35.4,23.8z"/>
		<path class="st0" d="M66.1,17.6c-0.6,1.6-1.5,4.2-2.3,5.4c-1.1,0.2-4.4,0.9-7.3,0.9c-9.9,0-14.2-6.1-14.2-11.7
			C42.3,4.9,48.8,0,57.6,0c3.2,0,5.9,0.8,7,1c0.3,2,0.6,3.4,0.8,5.3l-1.1,0.2c-1.1-3.7-3.5-5.3-7.7-5.3c-6.6,0-10.2,5-10.2,10.3
			c0,6.6,4.4,11.1,10.4,11.1c4,0,6.2-1.9,8.2-5.4L66.1,17.6z"/>
		<path class="st0" d="M84.2,18.8c-0.2,0.9-0.9,3.8-1.2,4.7H67.8v-0.8c2.8-0.2,3.1-0.4,3.1-2.9v-12c0-2.5-0.2-2.7-3-2.9V4h8.8v0.8
			c-2.7,0.2-3,0.3-3,2.9v11.8c0,1.6,0.2,2.2,0.8,2.5c0.7,0.3,1.8,0.4,3.2,0.4c1.8,0,3-0.2,3.8-0.9c0.6-0.6,1.2-1.6,1.7-2.9
			L84.2,18.8z"/>
		<path class="st0" d="M98.3,23.5v-0.8c2.1-0.2,2.4-0.5,2-1.6c-0.4-1.2-1.1-2.8-1.8-4.6h-7.2c-0.5,1.3-1,2.6-1.5,3.8
			c-0.7,1.9-0.4,2.2,2.1,2.4v0.8h-7.3v-0.8c2.2-0.3,2.6-0.4,3.8-3.1l7-15.7l1-0.3c2.1,5.1,4.3,10.8,6.5,16c1,2.6,1.5,2.8,3.7,3v0.8
			h-8.3V23.5z M95,7.5L95,7.5c-1.1,2.5-2.2,5.2-3.2,7.6H98L95,7.5z"/>
		<path class="st0" d="M107.4,23.5v-0.8c2.8-0.2,3-0.4,3-2.9v-12c0-2.5-0.3-2.7-3-2.9V4h8.9v0.8c-2.8,0.2-3,0.4-3,2.9v12
			c0,2.6,0.3,2.7,3,2.9v0.8h-8.9V23.5z"/>
		<path class="st0" d="M138.3,23.7c-0.4,0-0.8,0-1.2,0c-2.6-0.1-3.9-0.8-5.4-2.7c-1.2-1.5-2.4-3.3-3.4-4.8c-0.6-0.8-1.1-1.2-2.9-1.2
			h-1.1v4.8c0,2.5,0.3,2.7,3,2.9v0.8h-8.8v-0.8c2.8-0.2,3-0.4,3-2.9v-12c0-2.6-0.3-2.7-2.9-2.9V4h8.3c2.5,0,4.1,0.3,5.3,1
			c1.4,0.8,2.3,2.1,2.3,3.9c0,2.6-1.8,4.2-4.3,5.1c0.6,1,2,3,3,4.3c1.2,1.6,1.9,2.3,2.7,3.1c0.9,0.9,1.7,1.2,2.4,1.4V23.7z M126,14
			c1.7,0,2.8-0.2,3.6-0.9c1.3-0.9,1.8-2.1,1.8-3.7c0-3.2-2.4-4.4-4.9-4.4c-1,0-1.5,0.1-1.8,0.3c-0.3,0.1-0.4,0.5-0.4,1.3V14H126z"/>
	</g>
	<text transform="matrix(1 0 0 1 54.2 37.3202)" class="st0 st1 st2">COUCH TO 5K</text>
</g>
</svg>
